<?xml version="1.0" encoding="UTF-8"?>
<svg width="39px" height="41px" viewBox="0 0 39 41" version="1.1" xmlns="http://www.w3.org/2000/svg" xmlns:xlink="http://www.w3.org/1999/xlink">
    <title>Group 2</title>
    <g id="14.-User-dashboard" stroke="none" stroke-width="1" fill="none" fill-rule="evenodd">
        <g id="Signup-v.2" transform="translate(-22.000000, -93.000000)" fill-rule="nonzero">
            <g id="Group-2" transform="translate(22.000000, 93.000000)">
                <g id="blob" fill="#FC4445">
                    <path d="M31.6037993,1.03671643 C34.7385994,2.46162558 37.018454,5.80368521 38.0029367,9.35300436 C38.961512,12.8764161 38.6506227,16.5811799 37.251621,19.5346279 C35.8785267,22.5139834 33.4691349,24.6902083 31.5778918,27.9286381 C29.6866488,31.167068 28.3135545,35.4417955 25.3860139,37.8770947 C22.4843807,40.312394 18.0023938,40.8823577 14.5567044,39.250189 C11.111015,37.6439278 8.70162318,33.8355342 6.73265781,30.33803 C4.73778501,26.8405257 3.2092461,23.6539107 2.01750391,19.9750544 C0.799854274,16.296198 -0.0550912145,12.1251003 1.83615183,9.76752339 C3.75330232,7.384039 8.41664135,6.7881679 11.9659605,5.57051826 C15.5411871,4.35286863 18.0023938,2.48753302 21.2408237,1.32169826 C24.4792535,0.129956067 28.4689992,-0.388192714 31.6037993,1.03671643 Z" id="Path"></path>
                </g>
                <path d="M19.4919074,26.559049 L19.4919074,23.6417869 L19.3913121,22.0523821 C19.7400423,22.3876996 20.1155979,22.645894 20.5179789,22.8269655 C20.9203598,23.0080369 21.3361535,23.0985726 21.7653599,23.0985726 C22.3018679,23.0985726 22.8216099,22.9778583 23.3245862,22.7364298 C23.8275624,22.4950012 24.2768878,22.1429178 24.6725624,21.6801797 C25.0682371,21.2174416 25.3834355,20.6541082 25.6181577,19.9901796 C25.85288,19.326251 25.9702411,18.5650803 25.9702411,17.7066676 C25.9702411,16.9421437 25.8797054,16.2480365 25.6986339,15.624346 C25.5175625,15.0006555 25.259368,14.4675007 24.9240505,14.0248817 C24.5887331,13.5822626 24.1796457,13.2402388 23.6967886,12.9988102 C23.2139314,12.7573816 22.6707171,12.6366673 22.0671456,12.6366673 C21.5440504,12.6366673 21.037721,12.7540284 20.5481574,12.9887506 C20.0585939,13.2234729 19.619328,13.5151991 19.2303597,13.8639293 L19.2303597,13.8639293 L19.1498836,13.8639293 L18.9486931,12.8780959 L16.5344072,12.8780959 L16.5344072,26.559049 L19.4919074,26.559049 Z M21.0813122,20.6842868 C20.8264709,20.6842868 20.5649233,20.6373423 20.2966693,20.5434534 C20.0284153,20.4495646 19.7601614,20.2819058 19.4919074,20.0404772 L19.4919074,20.0404772 L19.4919074,15.9563103 C20.0552407,15.3527389 20.6252805,15.0509531 21.2020265,15.0509531 C22.3555186,15.0509531 22.9322647,15.949604 22.9322647,17.7469057 C22.9322647,18.7796835 22.7511933,19.5274415 22.3890504,19.9901796 C22.0269075,20.4529177 21.5909948,20.6842868 21.0813122,20.6842868 Z" id="p-copy" fill="#FFFFFF"></path>
            </g>
        </g>
    </g>
</svg>